<?xml version="1.0" encoding="UTF-8" standalone="no"?>
<svg width="800" height="600" viewBox="0 0 800 600" xmlns="http://www.w3.org/2000/svg">
  <defs>
    <linearGradient id="bgGradient" x1="0%" y1="0%" x2="100%" y2="100%">
      <stop offset="0%" style="stop-color:#0a0a1a;stop-opacity:1" />
      <stop offset="100%" style="stop-color:#0a1a2a;stop-opacity:1" />
    </linearGradient>
    <linearGradient id="matrixGradient1" x1="0%" y1="0%" x2="100%" y2="100%">
      <stop offset="0%" style="stop-color:#00ff88;stop-opacity:1" />
      <stop offset="100%" style="stop-color:#0088ff;stop-opacity:1" />
    </linearGradient>
    <linearGradient id="matrixGradient2" x1="0%" y1="0%" x2="100%" y2="100%">
      <stop offset="0%" style="stop-color:#ff0088;stop-opacity:1" />
      <stop offset="100%" style="stop-color:#8800ff;stop-opacity:1" />
    </linearGradient>
    <linearGradient id="matrixGradient3" x1="0%" y1="0%" x2="100%" y2="100%">
      <stop offset="0%" style="stop-color:#ffff00;stop-opacity:1" />
      <stop offset="100%" style="stop-color:#ff8800;stop-opacity:1" />
    </linearGradient>
    <filter id="matrixGlow">
      <feGaussianBlur stdDeviation="2" result="coloredBlur"/>
      <feMerge> 
        <feMergeNode in="coloredBlur"/>
        <feMergeNode in="SourceGraphic"/>
      </feMerge>
    </filter>
  </defs>
  
  <rect width="800" height="600" fill="url(#bgGradient)"/>
  
  <!-- Futuristic correlation matrix visualization -->
  <g transform="translate(150, 150)">
    <!-- Matrix grid -->
    <g stroke="rgba(0, 255, 255, 0.2)" stroke-width="1">
      <!-- Vertical lines -->
      <line x1="0" y1="0" x2="0" y2="300"/>
      <line x1="60" y1="0" x2="60" y2="300"/>
      <line x1="120" y1="0" x2="120" y2="300"/>
      <line x1="180" y1="0" x2="180" y2="300"/>
      <line x1="240" y1="0" x2="240" y2="300"/>
      <line x1="300" y1="0" x2="300" y2="300"/>
      
      <!-- Horizontal lines -->
      <line x1="0" y1="0" x2="300" y2="0"/>
      <line x1="0" y1="60" x2="300" y2="60"/>
      <line x1="0" y1="120" x2="300" y2="120"/>
      <line x1="0" y1="180" x2="300" y2="180"/>
      <line x1="0" y1="240" x2="300" y2="240"/>
      <line x1="0" y1="300" x2="300" y2="300"/>
    </g>
    
    <!-- Matrix cells with values -->
    <g filter="url(#matrixGlow)">
      <!-- Row 1 -->
      <rect x="0" y="0" width="60" height="60" fill="url(#matrixGradient1)" opacity="0.7"/>
      <text x="30" y="35" text-anchor="middle" fill="#ffffff" font-size="16" font-weight="bold" font-family="Arial">1.0</text>
      
      <rect x="60" y="0" width="60" height="60" fill="url(#matrixGradient2)" opacity="0.5"/>
      <text x="90" y="35" text-anchor="middle" fill="#ffffff" font-size="14" font-family="Arial">0.6</text>
      
      <rect x="120" y="0" width="60" height="60" fill="url(#matrixGradient3)" opacity="0.3"/>
      <text x="150" y="35" text-anchor="middle" fill="#ffffff" font-size="12" font-family="Arial">0.3</text>
      
      <rect x="180" y="0" width="60" height="60" fill="url(#matrixGradient1)" opacity="0.6"/>
      <text x="210" y="35" text-anchor="middle" fill="#ffffff" font-size="14" font-family="Arial">0.5</text>
      
      <rect x="240" y="0" width="60" height="60" fill="url(#matrixGradient2)" opacity="0.4"/>
      <text x="270" y="35" text-anchor="middle" fill="#ffffff" font-size="12" font-family="Arial">0.4</text>
      
      <!-- Row 2 -->
      <rect x="0" y="60" width="60" height="60" fill="url(#matrixGradient2)" opacity="0.5"/>
      <text x="30" y="95" text-anchor="middle" fill="#ffffff" font-size="14" font-family="Arial">0.6</text>
      
      <rect x="60" y="60" width="60" height="60" fill="url(#matrixGradient1)" opacity="0.8"/>
      <text x="90" y="95" text-anchor="middle" fill="#ffffff" font-size="16" font-weight="bold" font-family="Arial">1.0</text>
      
      <rect x="120" y="60" width="60" height="60" fill="url(#matrixGradient2)" opacity="0.6"/>
      <text x="150" y="95" text-anchor="middle" fill="#ffffff" font-size="14" font-family="Arial">0.7</text>
      
      <rect x="180" y="60" width="60" height="60" fill="url(#matrixGradient3)" opacity="0.2"/>
      <text x="210" y="95" text-anchor="middle" fill="#ffffff" font-size="10" font-family="Arial">0.1</text>
      
      <rect x="240" y="60" width="60" height="60" fill="url(#matrixGradient1)" opacity="0.5"/>
      <text x="270" y="95" text-anchor="middle" fill="#ffffff" font-size="12" font-family="Arial">0.6</text>
      
      <!-- Row 3 -->
      <rect x="0" y="120" width="60" height="60" fill="url(#matrixGradient3)" opacity="0.3"/>
      <text x="30" y="155" text-anchor="middle" fill="#ffffff" font-size="12" font-family="Arial">0.3</text>
      
      <rect x="60" y="120" width="60" height="60" fill="url(#matrixGradient2)" opacity="0.6"/>
      <text x="90" y="155" text-anchor="middle" fill="#ffffff" font-size="14" font-family="Arial">0.7</text>
      
      <rect x="120" y="120" width="60" height="60" fill="url(#matrixGradient1)" opacity="0.9"/>
      <text x="150" y="155" text-anchor="middle" fill="#ffffff" font-size="16" font-weight="bold" font-family="Arial">1.0</text>
      
      <rect x="180" y="120" width="60" height="60" fill="url(#matrixGradient2)" opacity="0.5"/>
      <text x="210" y="155" text-anchor="middle" fill="#ffffff" font-size="12" font-family="Arial">0.5</text>
      
      <rect x="240" y="120" width="60" height="60" fill="url(#matrixGradient3)" opacity="0.1"/>
      <text x="270" y="155" text-anchor="middle" fill="#ffffff" font-size="8" font-family="Arial">0.05</text>
      
      <!-- Row 4 -->
      <rect x="0" y="180" width="60" height="60" fill="url(#matrixGradient1)" opacity="0.6"/>
      <text x="30" y="215" text-anchor="middle" fill="#ffffff" font-size="14" font-family="Arial">0.5</text>
      
      <rect x="60" y="180" width="60" height="60" fill="url(#matrixGradient3)" opacity="0.2"/>
      <text x="90" y="215" text-anchor="middle" fill="#ffffff" font-size="10" font-family="Arial">0.1</text>
      
      <rect x="120" y="180" width="60" height="60" fill="url(#matrixGradient2)" opacity="0.5"/>
      <text x="150" y="215" text-anchor="middle" fill="#ffffff" font-size="12" font-family="Arial">0.5</text>
      
      <rect x="180" y="180" width="60" height="60" fill="url(#matrixGradient1)" opacity="0.7"/>
      <text x="210" y="215" text-anchor="middle" fill="#ffffff" font-size="16" font-weight="bold" font-family="Arial">1.0</text>
      
      <rect x="240" y="180" width="60" height="60" fill="url(#matrixGradient2)" opacity="0.6"/>
      <text x="270" y="215" text-anchor="middle" fill="#ffffff" font-size="14" font-family="Arial">0.7</text>
      
      <!-- Row 5 -->
      <rect x="0" y="240" width="60" height="60" fill="url(#matrixGradient2)" opacity="0.4"/>
      <text x="30" y="275" text-anchor="middle" fill="#ffffff" font-size="12" font-family="Arial">0.4</text>
      
      <rect x="60" y="240" width="60" height="60" fill="url(#matrixGradient1)" opacity="0.5"/>
      <text x="90" y="275" text-anchor="middle" fill="#ffffff" font-size="12" font-family="Arial">0.6</text>
      
      <rect x="120" y="240" width="60" height="60" fill="url(#matrixGradient3)" opacity="0.1"/>
      <text x="150" y="275" text-anchor="middle" fill="#ffffff" font-size="8" font-family="Arial">0.05</text>
      
      <rect x="180" y="240" width="60" height="60" fill="url(#matrixGradient2)" opacity="0.6"/>
      <text x="210" y="275" text-anchor="middle" fill="#ffffff" font-size="14" font-family="Arial">0.7</text>
      
      <rect x="240" y="240" width="60" height="60" fill="url(#matrixGradient1)" opacity="0.8"/>
      <text x="270" y="275" text-anchor="middle" fill="#ffffff" font-size="16" font-weight="bold" font-family="Arial">1.0</text>
    </g>
    
    <!-- Axis labels -->
    <text x="-30" y="30" text-anchor="end" fill="#00ffff" font-size="12" font-family="Arial" transform="rotate(-90, -30, 30)">DIM 3</text>
    <text x="-30" y="90" text-anchor="end" fill="#00ffff" font-size="12" font-family="Arial" transform="rotate(-90, -30, 90)">DIM 4</text>
    <text x="-30" y="150" text-anchor="end" fill="#00ffff" font-size="12" font-family="Arial" transform="rotate(-90, -30, 150)">DIM 5</text>
    <text x="-30" y="210" text-anchor="end" fill="#00ffff" font-size="12" font-family="Arial" transform="rotate(-90, -30, 210)">DIM 10</text>
    <text x="-30" y="270" text-anchor="end" fill="#00ffff" font-size="12" font-family="Arial" transform="rotate(-90, -30, 270)">DIM 11</text>
    
    <text x="30" y="-20" text-anchor="middle" fill="#ff00ff" font-size="12" font-family="Arial">DIM 3</text>
    <text x="90" y="-20" text-anchor="middle" fill="#ff00ff" font-size="12" font-family="Arial">DIM 4</text>
    <text x="150" y="-20" text-anchor="middle" fill="#ff00ff" font-size="12" font-family="Arial">DIM 5</text>
    <text x="210" y="-20" text-anchor="middle" fill="#ff00ff" font-size="12" font-family="Arial">DIM 10</text>
    <text x="270" y="-20" text-anchor="middle" fill="#ff00ff" font-size="12" font-family="Arial">DIM 11</text>
  </g>
  
  <!-- Title -->
  <text x="400" y="60" text-anchor="middle" fill="#00ffff" font-size="28" font-family="Arial" font-weight="bold" filter="url(#matrixGlow)">
    DIMENSIONAL CORRELATION MATRIX
  </text>
  <text x="400" y="90" text-anchor="middle" fill="#ff66ff" font-size="18" font-family="Arial" font-style="italic">
    Multi-Dimensional Physics Parameter Interactions
  </text>
  
  <!-- Legend -->
  <g transform="translate(600, 400)" filter="url(#matrixGlow)">
    <rect width="170" height="150" fill="rgba(0, 0, 30, 0.7)" stroke="#00ffff" stroke-width="2"/>
    <text x="85" y="20" text-anchor="middle" fill="#00ffff" font-size="14" font-weight="bold" font-family="Arial">CORRELATION KEYS</text>
    
    <rect x="10" y="35" width="20" height="20" fill="url(#matrixGradient1)"/>
    <text x="35" y="50" fill="#ffffff" font-size="12" font-family="Arial">0.7-1.0 (High)</text>
    
    <rect x="10" y="60" width="20" height="20" fill="url(#matrixGradient2)"/>
    <text x="35" y="75" fill="#ffffff" font-size="12" font-family="Arial">0.3-0.6 (Medium)</text>
    
    <rect x="10" y="85" width="20" height="20" fill="url(#matrixGradient3)"/>
    <text x="35" y="100" fill="#ffffff" font-size="12" font-family="Arial">0.0-0.2 (Low)</text>
    
    <text x="10" y="120" fill="#00ff88" font-size="12" font-family="Arial">Diagonal: Self-correlation</text>
    <text x="10" y="135" fill="#ff0088" font-size="12" font-family="Arial">Off-diagonal: Cross-correlation</text>
  </g>
  
  <!-- Info box -->
  <rect x="50" y="450" width="200" height="100" fill="rgba(0, 20, 30, 0.6)" stroke="#00ffff" stroke-width="2"/>
  <text x="150" y="470" text-anchor="middle" fill="#00ffff" font-size="14" font-weight="bold" font-family="Arial">ANALYSIS SUMMARY</text>
  <text x="60" y="490" fill="#ffffff" font-size="12" font-family="Arial">✓ Strong correlation: DIM 5 & 10</text>
  <text x="60" y="510" fill="#ffffff" font-size="12" font-family="Arial">✓ Moderate correlation: DIM 3 & 4</text>
  <text x="60" y="530" fill="#ffffff" font-size="12" font-family="Arial">✓ Low correlation: DIM 3 & 11</text>
  <text x="60" y="550" fill="#ffffff" font-size="12" font-family="Arial">✓ Simulation likelihood: 85%</text>
  
  <!-- Decorative elements -->
  <g opacity="0.3">
    <circle cx="100" cy="100" r="40" fill="none" stroke="#00ffff" stroke-width="1" stroke-dasharray="3,3"/>
    <circle cx="700" cy="100" r="30" fill="none" stroke="#ff00ff" stroke-width="1" stroke-dasharray="3,3"/>
    <circle cx="100" cy="500" r="35" fill="none" stroke="#ffff00" stroke-width="1" stroke-dasharray="3,3"/>
    <circle cx="700" cy="500" r="25" fill="none" stroke="#00ff88" stroke-width="1" stroke-dasharray="3,3"/>
  </g>
</svg>